<svg version="1.1" xmlns="http://www.w3.org/2000/svg" xmlns:xlink="http://www.w3.org/1999/xlink" x="0px" y="0px"
     viewBox="0 0 220.95 138.763" style="enable-background:new 0 0 220.95 138.763;" xml:space="preserve">
<style type="text/css">
    .st0{display:none;fill:#3B83C0;}
    .st1{fill:url(#gradient_1_);}
    .st2{opacity:0.05;}
    .st3{opacity:0.05;stroke:#000000;stroke-miterlimit:10;}
    .st4{fill:#FFFFFF;}
    .st5{fill:#FFFFFF;stroke:#FFFFFF;stroke-width:3;stroke-linecap:round;stroke-linejoin:round;stroke-miterlimit:10;}
</style>
<g id="logo">
    <g>
        <path id="check_6_" class="st3" d="M0.513,83.296c-0.984,3.643,53.16,54.176,61.622,54.963
            c8.461,0.786,96.449-117.432,97.172-121.585s-7.54-10.829-11.408-10.116c-3.868,0.712-81.016,91.408-87.985,90.76
            c-6.97-0.647-44.689-28.459-47.355-29.002C10.697,67.936,1.497,79.653,0.513,83.296z"/>
        <path class="st3" d="M178.372,120.547c0.149,4.312-65,10.746-69.313,10.895c-4.312,0.148-7.929-3.228-8.076-7.54
            c-0.149-4.312,3.226-7.93,7.539-8.078C112.834,115.676,178.225,116.234,178.372,120.547z"/>
        <path class="st3" d="M219.052,98.383c-0.004,4.315-85.344,7.714-89.66,7.709c-4.315-0.005-7.809-3.508-7.803-7.822
            c0.005-4.315,3.507-7.811,7.822-7.805C133.726,90.471,219.059,94.068,219.052,98.383z"/>
        <path class="st3" d="M207.048,76.839c-0.167,4.312-55.551,4.504-59.863,4.337c-4.312-0.167-7.673-3.799-7.504-8.11
            c0.166-4.312,3.797-7.673,8.109-7.505C152.103,65.727,207.216,72.527,207.048,76.839z"/>
        <path id="check_5_" class="st5" d="M3.413,78.291c-0.984,3.643,53.16,54.176,61.621,54.963
            c8.461,0.786,96.449-117.432,97.172-121.585c0.723-4.153-7.54-10.829-11.408-10.116c-3.868,0.712-81.016,91.408-87.985,90.76
            c-6.97-0.647-44.689-28.459-47.355-29.002C13.596,62.932,4.397,74.648,3.413,78.291z"/>
        <path class="st4" d="M180.271,116.543c0.149,4.312-65,10.746-69.313,10.895c-4.313,0.148-7.929-3.228-8.076-7.54
            c-0.149-4.312,3.227-7.93,7.539-8.078C114.733,111.672,180.123,112.23,180.271,116.543z"/>
        <path class="st4" d="M220.95,94.379c-0.004,4.315-85.344,7.714-89.66,7.709c-4.315-0.005-7.809-3.508-7.803-7.822
            c0.005-4.316,3.507-7.811,7.822-7.805C135.624,86.467,220.957,90.064,220.95,94.379z"/>
        <path class="st4" d="M208.946,72.835c-0.167,4.312-55.551,4.504-59.863,4.337c-4.313-0.167-7.673-3.799-7.504-8.11
            c0.166-4.312,3.797-7.673,8.109-7.505C154.001,61.724,209.114,68.523,208.946,72.835z"/>
    </g>
</g>
</svg>
